<svg
  xmlns="http://www.w3.org/2000/svg"
  width="69"
  height="32"
  viewBox="0 0 69 32"
  fill="none"
  class="img-fluid"
>
  <title>Jgive</title>
  <path
    d="M27.41 11.09V8.352h3.548V24.01c0 4.575-3.132 7.99-8.31 7.99-3.547 0-7.542-2.513-7.926-6.186h3.516c.255 1.514 2.142 3.093 4.378 3.093 2.91 0 4.794-1.74 4.794-4.414v-3.19c-.83 1.676-3.1 3.029-5.497 3.029-4.155 0-7.51-3.319-7.51-8.055v-.032c0-4.865 3.355-8.248 7.894-8.248 2.588 0 4.666 1.708 5.113 3.093zm-9.523 5.058v.065c0 2.996 2.269 5.09 4.826 5.09 2.556 0 4.794-1.836 4.794-5.09v-.065c0-3.254-2.238-5.122-4.859-5.122-2.62 0-4.761 2.094-4.761 5.122zM44.003 24.783L37.867 8.255h3.675l4.092 12.34 4.059-12.34h3.643l-6.104 16.528h-3.229zM68.999 17.47H56.566c.287 2.738 2.142 4.51 4.826 4.51 1.917 0 3.452-.999 3.93-2.642h3.548c-.863 3.673-3.835 5.703-7.702 5.703-4.762 0-8.246-3.512-8.246-8.442v-.032c0-4.865 3.483-8.667 8.086-8.667 5.433 0 7.99 4.253 7.99 8.216v1.353zm-3.484-2.74c-.032-1.674-1.47-3.93-4.379-3.93-2.397 0-3.9 1.772-4.41 3.93h8.789zM5.646 25.046c-2.914 0-5.375-1.979-5.646-2.204l2.249-2.756c.472.387 2.005 1.392 3.397 1.392 1.758 0 3.775-.54 3.775-4.742V5.633H4.014V2.064h8.947v14.672c0 7.5-5.115 8.31-7.315 8.31zM36.438 8.255v16.431h-3.547V8.257h3.547z"
    fill="#333"
  >
  </path>
  <path
    d="M36.057.03l-1.22.445a.5.5 0 01-.343 0L33.274.03a.502.502 0 00-.502.093l-1.39 1.206a.512.512 0 00-.163.495l.299 1.37a.51.51 0 00.141.257l2.655 2.597a.502.502 0 00.703 0l2.655-2.597c.07-.07.12-.159.141-.257l.299-1.37a.512.512 0 00-.164-.495L36.558.123a.502.502 0 00-.5-.093z"
    fill="#DD57FF"
  >
  </path>
</svg>
